<mxfile host="app.diagrams.net" agent="Mozilla/5.0 (Windows NT 10.0; Win64; x64) AppleWebKit/537.36 (KHTML, like Gecko) Chrome/131.0.0.0 Safari/537.36" version="24.9.3">
  <diagram name="Page-1" id="9i1114IZh_uKOEwifaeQ">
    <mxGraphModel dx="1050" dy="530" grid="1" gridSize="10" guides="1" tooltips="1" connect="1" arrows="1" fold="1" page="1" pageScale="1" pageWidth="850" pageHeight="1100" math="0" shadow="0">
      <root>
        <mxCell id="0" />
        <mxCell id="1" parent="0" />
        <mxCell id="vhDrarXeb6KXPBNjRkZj-14" value="ProfileManager" style="swimlane;fontStyle=1;align=center;verticalAlign=top;childLayout=stackLayout;horizontal=1;startSize=26;horizontalStack=0;resizeParent=1;resizeParentMax=0;resizeLast=0;collapsible=1;marginBottom=0;whiteSpace=wrap;html=1;" vertex="1" parent="1">
          <mxGeometry x="250" y="180" width="280" height="190" as="geometry" />
        </mxCell>
        <mxCell id="vhDrarXeb6KXPBNjRkZj-15" value="- user: User" style="text;strokeColor=none;fillColor=none;align=left;verticalAlign=top;spacingLeft=4;spacingRight=4;overflow=hidden;rotatable=0;points=[[0,0.5],[1,0.5]];portConstraint=eastwest;whiteSpace=wrap;html=1;" vertex="1" parent="vhDrarXeb6KXPBNjRkZj-14">
          <mxGeometry y="26" width="280" height="26" as="geometry" />
        </mxCell>
        <mxCell id="vhDrarXeb6KXPBNjRkZj-16" value="" style="line;strokeWidth=1;fillColor=none;align=left;verticalAlign=middle;spacingTop=-1;spacingLeft=3;spacingRight=3;rotatable=0;labelPosition=right;points=[];portConstraint=eastwest;strokeColor=inherit;" vertex="1" parent="vhDrarXeb6KXPBNjRkZj-14">
          <mxGeometry y="52" width="280" height="8" as="geometry" />
        </mxCell>
        <mxCell id="vhDrarXeb6KXPBNjRkZj-17" value="+ updateProfilePhoto(filePath: String): void&lt;div&gt;+ updateCoverPhoto(filePath: String): void&lt;/div&gt;&lt;div&gt;+ updateBio(bio: String): void&lt;/div&gt;&lt;div&gt;+ changePassword(hashedPassword: String): void&lt;/div&gt;&lt;div&gt;+ saveUser(user: User): void&lt;/div&gt;&lt;div&gt;+ userPosts(userId: String): List&amp;lt;Post&amp;gt;&lt;/div&gt;&lt;div&gt;+ friends(userId: String): List&amp;lt;User&amp;gt;&lt;/div&gt;" style="text;strokeColor=none;fillColor=none;align=left;verticalAlign=top;spacingLeft=4;spacingRight=4;overflow=hidden;rotatable=0;points=[[0,0.5],[1,0.5]];portConstraint=eastwest;whiteSpace=wrap;html=1;" vertex="1" parent="vhDrarXeb6KXPBNjRkZj-14">
          <mxGeometry y="60" width="280" height="130" as="geometry" />
        </mxCell>
      </root>
    </mxGraphModel>
  </diagram>
</mxfile>
